<?xml version="1.0" encoding="UTF-8" standalone="no"?>
<!-- Created with Inkscape (http://www.inkscape.org/) -->

<svg
   width="297mm"
   height="210mm"
   viewBox="0 0 1122.5197 793.70081"
   version="1.1"
   id="svg1"
   inkscape:version="1.4 (86a8ad7, 2024-10-11)"
   sodipodi:docname="pesage.svg"
   xmlns:inkscape="http://www.inkscape.org/namespaces/inkscape"
   xmlns:sodipodi="http://sodipodi.sourceforge.net/DTD/sodipodi-0.dtd"
   xmlns:xlink="http://www.w3.org/1999/xlink"
   xmlns="http://www.w3.org/2000/svg"
   xmlns:svg="http://www.w3.org/2000/svg">
  <sodipodi:namedview
     id="namedview1"
     pagecolor="#ffffff"
     bordercolor="#cccccc"
     borderopacity="1"
     inkscape:showpageshadow="0"
     inkscape:pageopacity="1"
     inkscape:pagecheckerboard="0"
     inkscape:deskcolor="#d1d1d1"
     inkscape:document-units="mm"
     inkscape:zoom="0.68866448"
     inkscape:cx="601.16357"
     inkscape:cy="527.83323"
     inkscape:window-width="1920"
     inkscape:window-height="991"
     inkscape:window-x="-9"
     inkscape:window-y="-9"
     inkscape:window-maximized="1"
     inkscape:current-layer="layer2" />
  <defs
     id="defs1">
    <linearGradient
       id="linearGradient12"
       inkscape:collect="always">
      <stop
         style="stop-color:#fffb74;stop-opacity:1;"
         offset="0.44466799"
         id="stop12" />
      <stop
         style="stop-color:#fffb74;stop-opacity:0;"
         offset="1"
         id="stop13" />
    </linearGradient>
    <linearGradient
       id="linearGradient1"
       inkscape:collect="always">
      <stop
         style="stop-color:#aafef9;stop-opacity:1;"
         offset="0.21431844"
         id="stop1" />
      <stop
         style="stop-color:#00c2ff;stop-opacity:1;"
         offset="1"
         id="stop2" />
    </linearGradient>
    <linearGradient
       inkscape:collect="always"
       xlink:href="#linearGradient1"
       id="linearGradient2"
       x1="508.23007"
       y1="0"
       x2="502.42172"
       y2="612.78027"
       gradientUnits="userSpaceOnUse"
       spreadMethod="pad" />
    <radialGradient
       inkscape:collect="always"
       xlink:href="#linearGradient12"
       id="radialGradient13"
       cx="600.15276"
       cy="484.64003"
       fx="600.15276"
       fy="484.64003"
       r="262.34225"
       gradientTransform="matrix(1.1957181,0,0,1.1793383,-154.41871,-129.18114)"
       gradientUnits="userSpaceOnUse" />
  </defs>
  <g
     inkscape:label="Слой 1"
     inkscape:groupmode="layer"
     id="layer1">
    <rect
       style="fill:url(#linearGradient2);stroke:#07ab38;fill-opacity:1"
       id="rect1"
       width="1122.5197"
       height="793.70081"
       x="0"
       y="0" />
    <path
       style="fill:#ffffff;stroke:none;stroke-width:0.604962"
       d="m 691.19743,252.24803 h 431.32227 l -69.398,-9.63046 c 0,0 -5.0076,-24.84995 -22.4076,-13.43506 -14.7982,9.70809 -7.5717,7.32875 -15.8852,5.12701 -8.8026,-2.33126 -11.4065,-15.61009 -29.32156,-20.26223 -18.3582,-4.76724 -70.69116,5.8893 -45.53407,27.65926 25.15709,21.76996 -10.92564,-64.98981 -51.50651,-69.28417 -41.58639,-4.40077 -82.9361,56.05234 -42.44436,69.28417 40.49174,13.23183 -16.26772,-50.58199 -47.34476,-55.24747 -31.48916,-4.72735 -70.21031,40.62088 -41.48152,55.24747 28.72878,14.62658 -8.3409,-23.83098 -27.78582,-23.71834 -15.62709,0.0905 -16.70023,4.31127 -24.39186,19.21491 -7.76454,15.04491 -13.66572,11.18093 -13.66572,11.18093 z"
       id="path7"
       sodipodi:nodetypes="cccsssssssssscc" />
    <path
       style="fill:#ffffff;stroke:none;stroke-width:0.604962"
       d="M 74.563595,338.01476 H 505.88589 l -69.39803,-9.63046 c 0,0 -5.0076,-24.84995 -22.4076,-13.43506 -14.7982,9.70809 -7.5717,7.32875 -15.8852,5.12701 -8.8026,-2.33126 -11.40651,-15.61009 -29.32156,-20.26223 -18.3582,-4.76724 -70.69116,5.8893 -45.53407,27.65926 25.15709,21.76996 -10.92565,-64.98981 -51.50652,-69.28417 -41.58639,-4.40077 -82.9361,56.05234 -42.44435,69.28417 40.49174,13.23183 -16.26773,-50.58199 -47.34476,-55.24747 -31.48916,-4.72735 -70.21031,40.62088 -41.48152,55.24747 28.72878,14.62658 -8.34091,-23.83098 -27.78583,-23.71834 -15.627085,0.0905 -16.700225,4.31127 -24.391845,19.21491 -7.76455,15.04491 -13.66572,11.18093 -13.66572,11.18093 z"
       id="path7-5"
       sodipodi:nodetypes="cccsssssssssscc" />
    <path
       style="fill:#ffffff;stroke:none;stroke-width:0.604962"
       d="m -197.26931,193.8456 h 431.32229 l -69.39803,-9.63046 c 0,0 -5.0076,-24.84995 -22.4076,-13.43506 -14.7982,9.70809 -7.5717,7.32875 -15.8852,5.12701 -8.8026,-2.33126 -11.40651,-15.61009 -29.32156,-20.26223 -18.3582,-4.76724 -70.69116,5.8893 -45.53407,27.65926 C 76.66361,205.07408 40.58087,118.31431 0,114.01995 c -41.58639,-4.40077 -82.9361,56.05234 -42.44435,69.28417 40.49174,13.23183 -16.26773,-50.58199 -47.34476,-55.24747 -31.48916,-4.72735 -70.21031,40.62088 -41.48152,55.24747 28.72878,14.62658 -8.34091,-23.83098 -27.78583,-23.71834 -15.62708,0.0905 -16.70022,4.31127 -24.39184,19.21491 -7.76455,15.04491 -13.66572,11.18093 -13.66572,11.18093 z"
       id="path7-5-7"
       sodipodi:nodetypes="cccsssssssssscc" />
    <path
       style="fill:#ffffff;stroke:none;stroke-width:0.604962"
       d="m 661.13393,132.98315 h -431.3223 l 69.398,-9.63046 c 0,0 5.0076,-24.849952 22.4076,-13.43506 14.7982,9.70809 7.5717,7.32875 15.8852,5.12701 8.8026,-2.33126 11.4065,-15.610092 29.3216,-20.262228 18.35819,-4.76724 70.69115,5.889298 45.53406,27.659258 -25.15709,21.76996 10.92564,-64.989808 51.50651,-69.284168 41.58639,-4.40077 82.9361,56.052338 42.44436,69.284168 -40.49174,13.23183 16.26772,-50.581988 47.34476,-55.247468 31.48916,-4.72735 70.21031,40.620878 41.48152,55.247468 -28.72878,14.62658 8.3409,-23.830982 27.78582,-23.718342 15.62709,0.0905 16.70023,4.311272 24.39186,19.214912 7.76454,15.04491 13.66572,11.18093 13.66572,11.18093 z"
       id="path7-8"
       sodipodi:nodetypes="cccsssssssssscc" />
    <path
       style="fill:#ffffff;stroke:none;stroke-width:0.604962"
       d="M 1277.3446,58.929043 H 846.02232 l 69.398,-9.63046 c 0,0 5.0076,-24.84996 22.4076,-13.43506 14.7982,9.70809 7.5717,7.32875 15.8852,5.12701 8.8026,-2.33126 11.4065,-15.61009 29.3216,-20.26223 18.35818,-4.76724 70.69118,5.8893 45.53408,27.65926 -25.1571,21.76996 10.9256,-64.989811 51.5065,-69.284171 41.5864,-4.40077 82.9361,56.052341 42.4444,69.284171 -40.4918,13.23183 16.2677,-50.5819914 47.3447,-55.2474714 31.4892,-4.7273496 70.2103,40.6208814 41.4815,55.2474714 -28.7287,14.62658 8.3409,-23.83099 27.7859,-23.71835 15.627,0.0905 16.7002,4.31128 24.3918,19.21492 7.7646,15.04491 13.6657,11.18093 13.6657,11.18093 z"
       id="path7-8-1"
       sodipodi:nodetypes="cccsssssssssscc" />
  </g>
  <g
     inkscape:groupmode="layer"
     id="layer3"
     inkscape:label="солнце">
    <ellipse
       style="fill:url(#radialGradient13);stroke:none;stroke-width:1.19572"
       id="path11"
       cx="563.19489"
       cy="442.37344"
       rx="313.68738"
       ry="309.39029" />
  </g>
  <g
     inkscape:groupmode="layer"
     id="layer2"
     inkscape:label="Слой 2">
    <path
       style="fill:#766f60;stroke:none;fill-opacity:1"
       d="m 0,621.49278 c 0,0 70.21484,-201.74798 101.64601,-172.79822 110.35854,101.64602 70.90563,-55.08825 127.74255,-121.22128 84.26201,-98.0437 228.31377,67.55662 217.85392,183.66098 -14.52086,161.18154 60.9876,165.53779 151.01693,159.72946 68.88816,-4.44438 90.02934,122.83709 95.83768,122.83709 H 0 Z"
       id="path8"
       sodipodi:nodetypes="cssssccc" />
    <path
       style="fill:#958e7d;fill-opacity:1;stroke:none"
       d="m 296.5599,298.02515 c 0,0 87.14926,19.19934 123.85186,103.12384 16.81341,38.44569 24.42051,73.3323 26.83072,109.98527 3.06683,46.63855 -4.16157,93.59643 15.98266,120.25028 30.19062,39.94672 62.017,40.0785 135.03427,39.47918 73.39516,-0.60242 95.83768,122.83709 95.83768,122.83709 H 503.87382 c 0,0 -15.97294,-108.31623 -55.17926,-70.562 -39.20632,37.75423 -175.7024,-108.90645 -133.5919,-126.33149 42.11049,-17.42503 -65.34908,-97.35406 0,-174.25031 24.86627,-29.26014 16.42016,-42.37872 0.86632,-51.93329 -25.32197,-15.55506 -69.48262,-21.6639 -19.40908,-72.59857 z"
       id="path9"
       sodipodi:nodetypes="cssssccssssc" />
    <path
       style="fill:#8c7f66;fill-opacity:1;stroke:none;stroke-width:0.551391"
       d="m 677.32365,698.74688 c 0,0 -38.7158,-111.24198 -56.04667,-95.27935 -60.8507,56.04668 -39.09672,-30.37516 -70.43608,-66.8403 -46.4613,-54.0604 -125.89012,37.2501 -120.12265,101.26898 8.00667,88.87402 -33.62801,91.27602 -83.26937,88.07336 -37.98426,-2.45059 -49.64133,67.73124 -52.84403,67.73124 h 382.7188 z"
       id="path8-2"
       sodipodi:nodetypes="cssssccc" />
    <path
       style="fill:#b4afa2;fill-opacity:1;stroke:none;stroke-width:0.551391"
       d="m 513.80324,520.3898 c 0,0 -48.0533,10.58634 -68.29078,56.86154 -9.27076,21.1986 -13.46525,40.43475 -14.79421,60.64487 -1.69103,25.71607 2.29465,51.60821 -8.8127,66.3049 -16.64683,22.02625 -34.1956,22.09892 -74.45667,21.76846 -40.46938,-0.33217 -52.84403,67.73124 -52.84403,67.73124 h 104.88739 c 0,0 8.80734,-59.72457 30.42534,-38.90724 21.61801,20.81734 96.8807,-60.05002 73.66135,-69.65802 -23.21934,-9.60801 36.03289,-53.68014 0,-96.08003 -13.71103,-16.13377 -9.05392,-23.36723 -0.47768,-28.63554 13.9623,-8.57691 38.31208,-11.94527 10.70199,-40.03018 z"
       id="path9-3"
       sodipodi:nodetypes="cssssccssssc" />
    <path
       style="fill:#5b554a;fill-opacity:1;stroke:none"
       d="m 35.891481,531.17701 c 1.530202,-3.39787 40.540773,-103.13296 65.754529,-82.48245 25.21375,20.65051 43.92652,40.36253 57.88359,33.30385 13.95708,-7.05868 -58.90519,49.87354 -9.61975,83.75727 C 190.3553,593.56192 37.990852,594.50552 71.874588,679.72825 89.651667,724.4403 0,749.84027 0,707.5968 0,658.84506 0,621.49278 0,621.49278 Z"
       id="path10"
       sodipodi:nodetypes="cssssscc" />
    <path
       style="fill:#766d62;fill-opacity:1;stroke:none;stroke-width:0.692147"
       d="m 661.88798,647.03432 c -1.05912,-2.35183 -28.06016,-71.38314 -45.51178,-57.08996 -17.45162,14.29319 -30.4036,27.9368 -40.06394,23.05115 -9.66035,-4.88564 40.77103,34.51981 6.65828,57.97232 -27.99418,19.24601 77.46437,19.89911 54.01185,78.88575 -12.30435,30.9473 49.74776,48.52781 49.74776,19.28912 0,-33.74336 0,-59.59662 0,-59.59662 z"
       id="path10-6"
       sodipodi:nodetypes="cssssscc" />
    <path
       style="fill:#766f60;fill-opacity:1;stroke:none"
       d="m 448.70278,793.70081 c 0,0 184.29906,-119.73269 200.08576,-163.02048 15.78671,-43.28779 63.3479,-282.33935 76.11802,-305.19113 19.50882,-34.91051 32.28956,-83.78265 144.77595,-122.1868 116.46321,-39.76188 185.37769,229.58438 185.37769,229.58438 l 17.9247,360.81403 z"
       id="path17"
       sodipodi:nodetypes="csssccc" />
    <path
       style="fill:#4f4f43;fill-opacity:1;stroke:none"
       d="m 908.13428,198.02756 c 0,0 20.72429,40.22049 -3.27572,52.22047 -24,11.99998 -51.07699,26.49796 -64.1482,68.37324 -13.0712,41.87528 34.1719,121.75217 34.1719,121.75217 l 56.4254,351.57737 189.21194,-0.25 0.5001,-368.61396 -67.9595,7.79993 c 0,0 -70.30444,-246.38975 -144.92592,-232.85922 z"
       id="path19" />
    <path
       style="fill:#8b8074;fill-opacity:1;stroke:none;stroke-width:0.859256"
       d="m 774.32864,794.20081 c 0,0 36.5089,-111.84317 52.50226,-197.14093 12.1697,-64.9049 15.67527,-129.10209 79.52423,-158.64396 84.75231,-39.21352 71.7586,129.92459 71.7586,129.92459 21.82187,-40.37056 35.74007,-86.37294 66.35757,-120.75492 20.5808,-30.96101 51.6494,-60.45533 78.5484,-87.46004 v 434.07526 z"
       id="path13"
       sodipodi:nodetypes="cssccccc" />
    <path
       style="fill:#ada79e;fill-opacity:1;stroke:none"
       d="m 786.29053,755.75436 c 0,0 53.67845,-227.51035 62.11432,-254.38292 7.96457,-25.37126 27.78844,-79.49244 87.2051,-68.37381 15.17415,2.83953 46.04871,-5.82005 42.50378,135.34288 -3.69968,147.32503 -67.36003,-68.29874 -72.49392,-11.82585 -5.1339,56.47289 -32.64647,22.30153 -44.15154,84.19596 -13.25325,71.29924 58.52645,66.74068 -11.29457,114.99933 -69.82103,48.25865 -75.84506,38.49086 -75.84506,38.49086"
       id="path14"
       sodipodi:nodetypes="cssssssc" />
    <path
       style="fill:#cec9c5;fill-opacity:1;stroke:none"
       d="m 1123.0197,360.12555 c 0,0 -20.0797,3.3078 -78.5484,87.46004 -66.0886,95.11928 -75.10533,138.14263 -75.10533,170.9996 0,32.85695 -48.41477,143.78545 -20.6918,175.61562 20.11836,23.09886 70.91813,-122.6868 70.91813,-122.6868 0,0 -8.4635,-78.03526 15.4017,-116.02612 23.8652,-37.99085 20.813,23.50302 51.339,-24.64272 30.526,-48.14573 36.6867,-105.75832 36.6867,-105.75832 z"
       id="path15"
       sodipodi:nodetypes="cssscsscc" />
    <path
       style="fill:#70685e;fill-opacity:1;stroke:none"
       d="m 948.67417,794.20081 c 0,0 -15.20748,-29.71859 -0.64782,-84.92111 14.55965,-55.20252 21.33962,-90.69451 21.33962,-90.69451 l -18.96824,-9.77825 c 0,0 -8.84063,91.45691 -25.26911,93.51046 -16.42847,2.05356 -37.92046,90.8834 -7.18746,91.38341 z"
       id="path16" />
    <path
       style="fill:#e2e2dd;fill-opacity:1;stroke:none"
       d="m 446.56181,791.64116 c 5.37237,-23.69821 47.16902,-37.39015 78.55625,-53.95711 23.55998,-15.14035 45.62388,-34.85235 69.59541,-49.58635 20.60019,-20.34148 43.15836,-45.21767 59.10401,-72.58017 3.06814,-31.09834 5.98591,-61.69741 8.27209,-92.77991 8.13078,-41.24723 18.71991,-74.18028 29.12609,-110.77368 23.49468,-64.37815 31.68065,-78.36814 45.59391,-118.2508 22.18537,-34.49595 62.64462,-64.23257 98.70323,-80.15505 24.23101,-2.712 54.47073,-30.08953 74.62148,-13.53053 13.87227,21.77154 -4.12774,48.31382 -27.27572,64.22047 -28.42248,21.43613 -44.74444,60.84788 -53.2194,98.24852 -11.38407,34.28696 -14.60363,70.38552 -19.06422,105.93448 -4.26336,26.30494 -19.77113,48.3317 -35.77977,68.72719 -21.02217,29.25896 -21.79986,65.62418 -16.53911,99.41109 -1.66237,36.11627 -28.55811,68.44965 -64.44993,74.89315 -26.40192,8.84456 -55.51164,15.65692 -78.85243,31.92005 -21.58519,9.03893 -43.70094,19.26528 -66.80628,21.97441 -30.44403,11.61416 -64.0761,7.85013 -93.56723,20.81349 l 8.92787,-5.75299 z"
       id="path18"
       sodipodi:nodetypes="cccccccccccccccccccc" />
    <path
       style="fill:#a8a59a;fill-opacity:1;stroke:none"
       d="m 446.56181,791.64115 c 5.37237,-23.6982 47.16902,-37.3902 78.55625,-53.9571 23.55998,-15.1404 40.54158,-6.5367 71.0475,-11.8321 36.41618,-12.246 95.63299,-40.41 111.57864,-67.7725 3.06814,-31.0983 22.48536,-62.1489 24.77154,-93.2314 8.13078,-41.2472 30.3366,-89.4271 40.74278,-126.0205 23.49468,-64.3782 -2.44337,-68.9296 11.46989,-108.81228 22.18537,-34.49595 45.21959,-63.90443 81.2782,-79.82691 24.23101,-2.712 23.97692,-66.71982 44.12767,-50.16082 13.87227,21.77154 -4.12774,48.31382 -27.27572,64.22047 -28.42248,21.43613 -44.74444,60.84788 -53.2194,98.24854 -11.38407,34.2869 -14.60363,70.3855 -19.06422,105.9345 -4.26336,26.3049 -19.77113,48.3317 -35.77977,68.7272 -21.02217,29.2589 -21.79986,65.6241 -16.53911,99.411 -1.66237,36.1163 -28.55811,68.4497 -64.44993,74.8932 -26.40192,8.8446 -55.51164,15.6569 -78.85243,31.92 -21.58519,9.039 -43.70094,19.2653 -66.80628,21.9745 -30.44403,11.6141 -64.0761,7.8501 -93.56723,20.8134 l 8.92787,-5.7529 z"
       id="path18-6"
       sodipodi:nodetypes="cccccccccccccccccccc" />
  </g>
</svg>
