<!DOCTYPE svg PUBLIC "-//W3C//DTD SVG 1.1//EN" "http://www.w3.org/Graphics/SVG/1.1/DTD/svg11.dtd">
<!-- Uploaded to: SVG Repo, www.svgrepo.com, Transformed by: SVG Repo Mixer Tools -->
<svg fill="#ffffff" height="800px" width="800px" version="1.1" id="Layer_1" xmlns="http://www.w3.org/2000/svg" xmlns:xlink="http://www.w3.org/1999/xlink" viewBox="0 0 512 512" xml:space="preserve">
<g id="SVGRepo_bgCarrier" stroke-width="0"/>
<g id="SVGRepo_tracerCarrier" stroke-linecap="round" stroke-linejoin="round"/>
<g id="SVGRepo_iconCarrier"> <g> <g> <g> <path d="M256,253.69c-98.163,0-177.583,79.885-177.583,177.583v61.376c0,10.687,8.664,19.352,19.352,19.352h316.462 c10.687,0,19.352-8.664,19.352-19.352v-61.376C433.584,333.721,354.39,253.69,256,253.69z M236.648,473.297H117.121v-42.024 c0-39.089,16.239-74.451,42.317-99.713l77.211,110.641V473.297z M190.704,308.733c40.966-21.916,90.121-21.653,130.593,0 L256,402.301L190.704,308.733z M275.353,473.297v-31.096l77.209-110.643c26.078,25.262,42.317,60.625,42.317,99.714v42.024 H275.353z"/> <path d="M165.073,219.074c0,10.687,8.664,19.352,19.352,19.352h143.152c10.687,0,19.352-8.664,19.352-19.352v-22.808 C412.14,119.517,357.685,0,256,0C154.427,0,99.768,119.408,165.073,196.266V219.074z M308.225,199.722H203.776 c0-7.88,0-13.856,0-21.738h104.449C308.225,185.86,308.225,191.856,308.225,199.722z M256,38.703 c52.657,0,91.611,50.144,77.738,101.578c-7.368-2.473-152.554-0.982-155.475,0C164.375,88.81,203.382,38.703,256,38.703z"/> </g> </g> </g> </g>
</svg>